<svg width="31" height="28" viewBox="0 0 31 28" fill="none" xmlns="http://www.w3.org/2000/svg">
<g clip-path="url(#clip0_1612_7886)">
<path d="M11.2271 27.9654C11.7669 27.4095 12.2167 26.9406 12.6665 26.4716C13.1343 25.9505 13.5841 25.412 14.0699 24.8909C14.3757 24.5609 14.3577 24.2482 14.1778 23.8487C13.8 23.015 13.4042 22.1986 13.1523 21.3301C12.7924 20.0621 12.8104 18.742 13.1883 17.4741C13.4761 16.5361 13.9079 15.6502 14.2318 14.7296C14.3038 14.5386 14.2318 14.1912 14.0879 14.0349C12.8644 12.7842 11.3351 12.1937 9.62587 12.1589C8.49238 12.1415 7.35889 12.2805 6.2254 12.3326C4.08437 12.4368 2.37514 11.6031 1.00776 10.0398C0.73788 9.72716 0.791855 9.55346 1.11571 9.37976C1.45755 9.1887 1.7994 8.8413 2.12325 8.85867C2.42912 8.87604 2.71699 9.27554 2.98686 9.51872C3.86847 10.3177 4.91199 10.6651 6.09946 10.5956C6.2254 10.5956 6.35134 10.5435 6.53126 10.4914C6.42331 10.3177 6.35135 10.1961 6.27938 10.0746C4.87601 8.23336 4.73208 6.25321 5.52372 4.16884C5.64966 3.85619 5.82958 3.71723 6.17143 3.9083C6.18942 3.9083 6.20741 3.92567 6.20741 3.92567C7.30491 4.34254 7.26893 4.32517 7.01704 5.41947C6.63921 7.05222 6.98106 8.54602 8.31246 9.67505C8.81623 10.0746 9.53591 10.283 10.2016 10.5088C10.6514 10.6651 11.1552 10.7172 11.641 10.7867C12.1087 10.8562 12.1447 10.7867 12.0548 10.3351C11.8928 9.5882 11.7849 8.82393 11.551 8.0944C11.1372 6.82641 10.2916 5.95793 8.6723 5.8016C8.29447 5.76686 8.16852 5.59316 8.24049 5.26314C8.51037 4.01252 8.97816 3.78671 10.1656 4.35991C10.6874 4.60309 11.1732 4.91574 11.6589 5.21103C11.9468 5.38473 12.0908 5.40209 12.2347 5.01996C12.8644 3.3351 13.854 1.87604 15.4912 0.955445C16.2649 0.538571 17.1465 0.295395 17.9741 0.000109803C18.226 -0.0867388 18.4239 0.0174796 18.3879 0.330135C18.3879 0.347504 18.3879 0.364874 18.3879 0.364874C18.3879 0.747008 18.5139 1.23336 18.3339 1.51128C18.172 1.77182 17.6502 1.82393 17.2904 1.98026C15.6711 2.62294 14.6456 3.80408 14.0159 5.34999C13.5121 6.58324 13.4042 7.85123 13.6021 9.15396C13.782 10.3698 14.2678 11.4815 15.0774 12.4542C15.4013 12.8537 15.5812 12.8537 15.869 12.4542C17.2004 10.7693 17.7582 8.87604 17.2904 6.7743C17.0925 5.85371 16.6967 4.96785 16.3728 3.99515C16.7327 3.75197 17.2004 3.45669 17.7582 3.09192C18.172 3.92567 18.5498 4.68994 18.9636 5.50631C19.1256 5.36736 19.2515 5.28051 19.3595 5.19366C20.0072 4.62046 20.8168 4.34254 21.6264 4.09937C22.0223 3.99515 22.3821 4.04726 22.4721 4.53361C22.4721 4.56835 22.526 4.60309 22.526 4.6552C22.58 4.95048 22.724 5.26314 22.67 5.54105C22.616 5.99267 22.1662 5.74949 21.8963 5.83634C20.421 6.23584 19.6653 7.03485 19.2515 8.49391C19.1076 9.03237 18.9996 9.5882 18.8737 10.144C18.7298 10.6999 18.8377 10.8562 19.4314 10.7867C20.493 10.6651 21.5545 10.4393 22.4361 9.83138C23.7855 8.91078 24.1093 7.5212 24.0194 6.04478C24.0014 5.61053 23.8035 5.17629 23.7315 4.74205C23.7135 4.62046 23.7855 4.41202 23.8934 4.34254C24.0733 4.20358 24.3252 4.15147 24.5411 4.04726C25.2428 3.75197 25.2968 3.75197 25.5307 4.44676C26.1784 6.39217 26.0524 8.23336 24.811 9.93559C24.6851 10.0919 24.6311 10.3004 24.5591 10.4914C24.775 10.5262 24.9909 10.5783 25.2068 10.5956C26.5202 10.6304 27.5458 10.0398 28.3734 9.13659C28.6613 8.80656 28.8952 8.77182 29.219 9.015C29.4169 9.17133 29.6328 9.29291 29.8667 9.4145C30.2086 9.5882 30.2266 9.7619 29.9747 10.0398C28.5893 11.5683 26.8981 12.4542 24.739 12.3326C23.8754 12.2805 23.0118 12.1763 22.1482 12.1242C20.475 12.0373 18.8917 12.4021 17.5603 13.4269C16.2469 14.4517 15.4912 15.8239 15.0234 17.3698C14.6996 18.4468 14.5376 19.5237 14.8075 20.618C14.9335 21.1391 15.1134 21.6428 15.2933 22.1465C15.3113 22.216 15.4372 22.3028 15.4732 22.2855C15.5632 22.2681 15.6711 22.1813 15.7071 22.1118C16.085 21.1564 16.4268 20.1837 16.2469 19.1589C16.049 17.9778 16.3728 16.953 16.9126 15.9455C16.9486 15.8934 16.9845 15.8413 17.0205 15.8066C17.0565 15.7718 17.0925 15.7545 17.1825 15.6676C17.3264 15.9803 17.4703 16.2582 17.5603 16.5535C17.9201 17.6825 18.118 18.8289 18.0461 20.01C17.9381 21.6949 17.3264 23.2408 16.3908 24.6304C15.6711 25.7073 14.8075 26.68 13.9799 27.6875C13.854 27.8438 13.5661 27.9654 13.3322 27.9654C12.6485 27.9827 11.9828 27.9654 11.2271 27.9654Z" fill="white"/>
<path d="M3.47246 20.5831C3.8323 20.0793 4.10218 19.6625 4.40804 19.2803C4.73189 18.8808 4.7139 18.794 4.24611 18.5682C2.01512 17.4565 0.791674 15.7543 0.773682 13.2878C0.773682 12.8014 0.809665 12.3151 0.845649 11.8113C0.863641 11.4813 1.00758 11.4292 1.25946 11.6376C1.6193 11.8982 1.99713 12.1414 2.30299 12.454C2.44693 12.593 2.5009 12.8709 2.51889 13.0793C2.57287 13.9304 2.7168 14.7295 3.20258 15.4764C4.15615 16.9528 5.70345 17.5086 7.43068 17.0223C8.20433 16.7965 8.20433 16.7965 7.71855 16.1538C7.12481 15.3548 6.81895 14.4689 6.76498 13.4441C7.21477 13.3746 7.66457 13.3225 8.09637 13.253C8.4742 13.2009 8.61814 13.4267 8.7081 13.7394C8.924 14.5384 9.28384 15.2679 10.0035 15.7543C10.4713 16.0669 10.9931 16.2927 11.5148 16.5012C12.0546 16.7096 12.0726 16.6922 11.9466 17.2307C11.8747 17.5086 11.8747 17.8039 11.8207 18.0818C11.7847 18.2729 11.6947 18.4118 11.4069 18.3597C10.0215 18.0644 8.74408 18.325 7.52063 18.985C6.69301 19.4367 6.02731 20.0446 5.48755 20.7741C5.32563 20.9999 5.18169 21.0694 4.89382 20.9826C4.498 20.8089 4.0482 20.722 3.47246 20.5831Z" fill="white"/>
<path d="M30.0284 11.377C30.1004 11.5854 30.1544 11.6896 30.1724 11.8112C30.3343 13.1487 30.2803 14.4514 29.7046 15.7194C29.0929 17.0395 28.0673 17.9427 26.7539 18.568C26.3221 18.7765 26.3041 18.898 26.592 19.2802C26.8979 19.6797 27.1677 20.0966 27.5096 20.5829C26.8979 20.7566 26.4121 20.8956 25.9263 20.9998C25.8184 21.0172 25.6024 20.9129 25.5305 20.7913C24.7928 19.7144 23.7853 18.9675 22.5438 18.5333C21.6083 18.2033 20.6367 18.0643 19.6471 18.3422C19.3593 18.4291 19.2153 18.3248 19.1614 18.0643C19.0894 17.7169 18.9994 17.3695 18.9634 17.0047C18.9455 16.8832 19.0894 16.7095 19.2153 16.64C19.6112 16.4663 20.0789 16.3621 20.4568 16.171C21.4463 15.6325 22.184 14.8856 22.3639 13.7566C22.4179 13.3571 22.6158 13.2008 23.0656 13.2355C24.1991 13.3224 24.451 13.635 24.0192 14.6598C23.7673 15.233 23.4254 15.7715 23.0836 16.31C22.8677 16.6574 22.8857 16.7789 23.2815 16.9005C24.5769 17.3348 25.8183 17.3 26.9338 16.4315C27.8334 15.7194 28.3552 14.7814 28.4272 13.6698C28.4632 12.9229 28.6251 12.3323 29.3627 11.9675C29.5787 11.8459 29.7406 11.6375 30.0284 11.377Z" fill="white"/>
<path d="M16.3187 8.25123C16.3907 8.99813 16.1928 9.72766 15.8149 10.4051C15.617 10.7698 15.4191 10.7698 15.2032 10.4398C14.3036 9.15446 14.4476 7.22642 15.2392 5.95843C15.4011 5.69788 15.581 5.71525 15.743 5.9758C16.1388 6.67059 16.3907 7.40011 16.3187 8.25123Z" fill="white"/>
<path d="M16.3187 8.25123C16.3907 8.99813 16.1928 9.72766 15.8149 10.4051C15.617 10.7698 15.4191 10.7698 15.2032 10.4398C14.3036 9.15446 14.4476 7.22642 15.2392 5.95843C15.4011 5.69788 15.581 5.71525 15.743 5.9758C16.1388 6.67059 16.3907 7.40011 16.3187 8.25123Z" fill="black" fill-opacity="0.04"/>
<path d="M23.6954 21.2423C22.4359 21.6245 21.2305 21.694 20.097 21.0165C19.7191 20.7907 19.4313 20.4607 19.5932 20.0091C19.7551 19.5575 20.1689 19.488 20.6187 19.4706C21.8782 19.4012 23.1916 20.287 23.6954 21.2423Z" fill="white"/>
<path d="M12.7383 1.02531C12.6483 2.03275 12.1985 2.8665 11.281 3.42233C11.083 3.54392 10.6872 3.59603 10.5613 3.47444C10.3634 3.30075 10.1834 2.97072 10.2014 2.71017C10.2554 1.85906 10.8491 1.3206 11.5508 0.886353C11.7307 0.782134 11.9287 0.695286 12.1086 0.625807C12.7203 0.382631 12.7563 0.4 12.7383 1.02531Z" fill="white"/>
<path d="M19.6292 27.9645C18.9095 27.9645 18.1538 28.0861 17.4522 27.9124C17.0383 27.8082 16.7325 27.2871 16.3906 26.9397C16.3547 26.905 16.3906 26.766 16.4266 26.6966C16.6965 26.3144 17.0024 25.9323 17.3262 25.498C18.1358 26.3144 18.8915 27.0787 19.6472 27.843C19.6472 27.8951 19.6292 27.9298 19.6292 27.9645Z" fill="white"/>
<path d="M26.9876 13.375C27.2934 14.2609 26.5737 15.772 25.6921 16.1368C25.4762 16.2236 25.1164 16.2063 24.9545 16.0673C24.7925 15.9457 24.7206 15.5983 24.7746 15.3725C24.9545 14.3998 26.034 13.4445 26.9876 13.375Z" fill="white"/>
<path d="M26.9876 13.375C27.2934 14.2609 26.5737 15.772 25.6921 16.1368C25.4762 16.2236 25.1164 16.2063 24.9545 16.0673C24.7925 15.9457 24.7206 15.5983 24.7746 15.3725C24.9545 14.3998 26.034 13.4445 26.9876 13.375Z" fill="black" fill-opacity="0.04"/>
<path d="M26.5021 8.19844C26.4841 7.22573 26.9878 6.53094 27.7615 5.97511C28.1033 5.73194 28.2653 5.81878 28.3012 6.21829C28.3912 7.0173 28.3912 7.8163 27.7795 8.45898C27.5816 8.65005 27.3477 8.82375 27.1318 8.98007C26.718 9.27536 26.574 9.20588 26.52 8.71953C26.4841 8.54583 26.5021 8.37213 26.5021 8.19844Z" fill="white"/>
<path d="M26.5021 8.19844C26.4841 7.22573 26.9878 6.53094 27.7615 5.97511C28.1033 5.73194 28.2653 5.81878 28.3012 6.21829C28.3912 7.0173 28.3912 7.8163 27.7795 8.45898C27.5816 8.65005 27.3477 8.82375 27.1318 8.98007C26.718 9.27536 26.574 9.20588 26.52 8.71953C26.4841 8.54583 26.5021 8.37213 26.5021 8.19844Z" fill="black" fill-opacity="0.04"/>
<path d="M4.33626 9.1718C3.1488 8.73756 2.59105 7.86907 2.68101 6.7053C2.699 6.5316 2.699 6.35791 2.71699 6.18421C2.75298 5.83681 2.9149 5.74997 3.20277 5.94103C4.2463 6.63582 4.75007 7.78222 4.42622 8.99811C4.42622 9.05021 4.37224 9.10232 4.33626 9.1718Z" fill="white"/>
<path d="M4.33626 9.1718C3.1488 8.73756 2.59105 7.86907 2.68101 6.7053C2.699 6.5316 2.699 6.35791 2.71699 6.18421C2.75298 5.83681 2.9149 5.74997 3.20277 5.94103C4.2463 6.63582 4.75007 7.78222 4.42622 8.99811C4.42622 9.05021 4.37224 9.10232 4.33626 9.1718Z" fill="black" fill-opacity="0.04"/>
<path d="M6.02732 16.0356C5.28921 15.9834 4.81877 15.576 4.65184 14.8905C4.62945 14.7874 4.5971 14.6873 4.57471 14.5843C4.52993 14.3781 4.60339 14.3011 4.7983 14.3631C5.50527 14.5895 5.99759 15.166 6.04477 15.9205C6.05447 15.9505 6.0343 15.9896 6.02732 16.0356Z" fill="white"/>
<path d="M6.02732 16.0356C5.28921 15.9834 4.81877 15.576 4.65184 14.8905C4.62945 14.7874 4.5971 14.6873 4.57471 14.5843C4.52993 14.3781 4.60339 14.3011 4.7983 14.3631C5.50527 14.5895 5.99759 15.166 6.04477 15.9205C6.05447 15.9505 6.0343 15.9896 6.02732 16.0356Z" fill="black" fill-opacity="0.04"/>
<path d="M11.4499 19.4576C11.0521 20.6061 10.1621 21.1815 8.92593 21.1593C8.7412 21.1516 8.5574 21.161 8.37266 21.1533C8.0032 21.138 7.90288 20.9893 8.09011 20.7063C8.77108 19.68 9.95798 19.1407 11.2614 19.3818C11.3165 19.379 11.3745 19.4273 11.4499 19.4576Z" fill="white"/>
<path d="M11.4499 19.4576C11.0521 20.6061 10.1621 21.1815 8.92593 21.1593C8.7412 21.1516 8.5574 21.161 8.37266 21.1533C8.0032 21.138 7.90288 20.9893 8.09011 20.7063C8.77108 19.68 9.95798 19.1407 11.2614 19.3818C11.3165 19.379 11.3745 19.4273 11.4499 19.4576Z" fill="black" fill-opacity="0.04"/>
<path d="M2.95662 19.5858C2.08245 19.6285 1.46874 19.2167 1.1692 18.4356C1.12734 18.3178 1.07425 18.2049 1.0324 18.0871C0.948682 17.8515 1.02324 17.7507 1.26139 17.7961C2.12532 17.9621 2.79027 18.5694 2.9597 19.4483C2.97562 19.4821 2.95785 19.5308 2.95662 19.5858Z" fill="white"/>
<path d="M2.95662 19.5858C2.08245 19.6285 1.46874 19.2167 1.1692 18.4356C1.12734 18.3178 1.07425 18.2049 1.0324 18.0871C0.948682 17.8515 1.02324 17.7507 1.26139 17.7961C2.12532 17.9621 2.79027 18.5694 2.9597 19.4483C2.97562 19.4821 2.95785 19.5308 2.95662 19.5858Z" fill="black" fill-opacity="0.04"/>
<path d="M12.7203 14.8338C12.7203 15.2854 12.2885 15.6328 11.9106 15.5286C10.9391 15.2507 10.2374 14.6775 9.87755 13.7395C9.78759 13.5137 9.78759 13.3574 10.1114 13.3052C10.9571 13.201 12.1985 13.7742 12.6123 14.5038C12.6663 14.6253 12.7023 14.7643 12.7203 14.8338Z" fill="white"/>
<path d="M19.0172 15.5463C18.4954 15.5636 18.1536 15.0252 18.3875 14.5735C18.7653 13.844 20.0607 13.184 20.8884 13.3056C21.1402 13.3403 21.2122 13.4793 21.1762 13.7051C21.0323 14.4346 19.7549 15.5289 19.0172 15.5463Z" fill="white"/>
<path d="M10.7952 9.48406C9.53572 9.57091 8.2583 8.44188 8.2583 7.22599C8.2583 7.12178 8.49219 6.91334 8.54617 6.93071C8.97798 7.06967 9.46376 7.19126 9.82359 7.4518C10.4353 7.90341 10.7772 8.73716 10.7952 9.48406Z" fill="white"/>
<path d="M30.0213 18.7988C29.5005 19.4779 28.7812 19.6741 27.966 19.4016C27.8452 19.358 27.7211 19.3259 27.6003 19.2823C27.3585 19.1951 27.3252 19.0755 27.5128 18.9267C28.1942 18.3878 29.1024 18.2775 29.9133 18.7092C29.9505 18.7188 29.9781 18.763 30.0213 18.7988Z" fill="white"/>
<path d="M30.0213 18.7988C29.5005 19.4779 28.7812 19.6741 27.966 19.4016C27.8452 19.358 27.7211 19.3259 27.6003 19.2823C27.3585 19.1951 27.3252 19.0755 27.5128 18.9267C28.1942 18.3878 29.1024 18.2775 29.9133 18.7092C29.9505 18.7188 29.9781 18.763 30.0213 18.7988Z" fill="black" fill-opacity="0.04"/>
<path d="M20.492 1.62775C20.9135 2.45253 20.7521 3.22225 20.0731 3.84826C19.9692 3.93948 19.8753 4.03942 19.7714 4.13064C19.5637 4.31309 19.4272 4.28466 19.3714 4.03535C19.1704 3.13036 19.5119 2.22688 20.3484 1.68413C20.3765 1.65415 20.4345 1.6503 20.492 1.62775Z" fill="white"/>
<path d="M20.492 1.62775C20.9135 2.45253 20.7521 3.22225 20.0731 3.84826C19.9692 3.93948 19.8753 4.03942 19.7714 4.13064C19.5637 4.31309 19.4272 4.28466 19.3714 4.03535C19.1704 3.13036 19.5119 2.22688 20.3484 1.68413C20.3765 1.65415 20.4345 1.6503 20.492 1.62775Z" fill="black" fill-opacity="0.04"/>
<path d="M22.9968 7.04433C22.9837 8.19891 22.3503 8.97234 21.2218 9.3011C21.0519 9.34632 20.8879 9.40673 20.718 9.45194C20.378 9.54236 20.2419 9.43573 20.3261 9.12599C20.6332 8.00243 21.547 7.17794 22.8028 7.02872C22.852 7.0106 22.9192 7.03809 22.9968 7.04433Z" fill="white"/>
<path d="M22.9968 7.04433C22.9837 8.19891 22.3503 8.97234 21.2218 9.3011C21.0519 9.34632 20.8879 9.40673 20.718 9.45194C20.378 9.54236 20.2419 9.43573 20.3261 9.12599C20.6332 8.00243 21.547 7.17794 22.8028 7.02872C22.852 7.0106 22.9192 7.03809 22.9968 7.04433Z" fill="black" fill-opacity="0.04"/>
</g>
<defs>
<clipPath id="clip0_1612_7886">
<rect width="31" height="28" fill="white"/>
</clipPath>
</defs>
</svg>
