<svg width="52" height="35" viewBox="0 0 52 35" fill="none" xmlns="http://www.w3.org/2000/svg">
<path d="M34.9678 25.7444C33.425 25.8334 31.8802 25.6076 30.4282 25.0809C28.9761 24.5542 27.6474 23.7377 26.5235 22.6815C25.3997 21.6253 24.5043 20.3516 23.8923 18.9385C23.2803 17.5254 22.9646 16.0028 22.9646 14.4639C22.9646 12.925 23.2803 11.4024 23.8923 9.98931C24.5043 8.57624 25.3997 7.30254 26.5235 6.24631C27.6474 5.19009 28.9761 4.37359 30.4282 3.8469C31.8802 3.32021 33.425 3.09443 34.9678 3.18339C35.9421 3.17613 36.9128 3.3033 37.852 3.56129C35.0385 1.54465 31.6532 0.472592 28.1867 0.500533C24.7202 0.528473 21.3527 1.65495 18.5723 3.71669C15.7919 5.77842 13.7431 8.66828 12.7228 11.9674C11.7025 15.2665 11.7638 18.8034 12.8978 22.0655C14.0317 25.3276 16.1795 28.1454 19.0296 30.1104C21.8798 32.0754 25.2843 33.0855 28.7497 32.9943C32.2151 32.9032 35.5613 31.7155 38.3033 29.6034C41.0453 27.4913 43.0406 24.5645 44 21.2473C42.9514 22.6469 41.5884 23.7826 40.02 24.5635C38.4516 25.3444 36.7213 25.7488 34.9678 25.7444Z" fill="url(#paint0_linear_5245_6466)"/>
<path d="M46.5 18C46.5 16.2761 45.9205 14.6228 44.8891 13.4038C43.8576 12.1848 42.4587 11.5 41 11.5C42.4587 11.5 43.8576 10.8152 44.8891 9.5962C45.9205 8.37721 46.5 6.72391 46.5 5C46.5 5.85359 46.6423 6.69882 46.9187 7.48744C47.1951 8.27606 47.6002 8.99262 48.1109 9.5962C48.6216 10.1998 49.228 10.6786 49.8952 11.0052C50.5625 11.3319 51.2777 11.5 52 11.5C51.2777 11.5 50.5625 11.6681 49.8952 11.9948C49.228 12.3214 48.6216 12.8002 48.1109 13.4038C47.6002 14.0074 47.1951 14.7239 46.9187 15.5126C46.6423 16.3012 46.5 17.1464 46.5 18Z" fill="url(#paint1_linear_5245_6466)"/>
<path d="M5.50001 34.5C5.50001 32.7761 4.92054 31.1228 3.88909 29.9038C2.85764 28.6848 1.45869 28 0 28C1.45869 28 2.85764 27.3152 3.88909 26.0962C4.92054 24.8772 5.50001 23.2239 5.50001 21.5C5.50001 22.3536 5.64227 23.1988 5.91867 23.9874C6.19507 24.7761 6.60019 25.4926 7.11091 26.0962C7.62164 26.6998 8.22796 27.1786 8.89525 27.5052C9.56254 27.8319 10.2777 28 11 28C10.2777 28 9.56254 28.1681 8.89525 28.4948C8.22796 28.8214 7.62164 29.3002 7.11091 29.9038C6.60019 30.5074 6.19507 31.2239 5.91867 32.0126C5.64227 32.8012 5.50001 33.6464 5.50001 34.5Z" fill="url(#paint2_linear_5245_6466)"/>
<defs>
<linearGradient id="paint0_linear_5245_6466" x1="28" y1="0.5" x2="28" y2="33" gradientUnits="userSpaceOnUse">
<stop stop-color="#FDC500"/>
<stop offset="1" stop-color="#FD8900"/>
</linearGradient>
<linearGradient id="paint1_linear_5245_6466" x1="46.5" y1="5" x2="46.5" y2="18" gradientUnits="userSpaceOnUse">
<stop stop-color="#FDC500"/>
<stop offset="1" stop-color="#FD8900"/>
</linearGradient>
<linearGradient id="paint2_linear_5245_6466" x1="5.5" y1="21.5" x2="5.5" y2="34.5" gradientUnits="userSpaceOnUse">
<stop stop-color="#FDC500"/>
<stop offset="1" stop-color="#FD8900"/>
</linearGradient>
</defs>
</svg>
