<svg width="51" height="51" viewBox="0 0 51 51" fill="none" xmlns="http://www.w3.org/2000/svg">
<path fill-rule="evenodd" clip-rule="evenodd" d="M14.8172 8L11.1049 15.7552C10.3112 17.4533 10.26 19.4808 11.1817 21.1282C11.8218 22.3193 12.9227 23.3078 14.8172 23.3078C16.7118 23.3078 17.7871 22.3193 18.4272 21.1282C19.3489 19.4808 19.2977 17.4533 18.504 15.7552L14.8172 8ZM26.4409 21.483L24.4439 25.6394C24.2244 26.0916 24.1147 26.5884 24.1235 27.0901C24.1324 27.5917 24.2597 28.0843 24.4951 28.5286C24.6694 28.8895 24.9465 29.1921 25.2921 29.3992C25.6378 29.6063 26.0371 29.7089 26.4409 29.6945C26.8435 29.7026 27.2401 29.5974 27.5846 29.391C27.9291 29.1846 28.2072 28.8855 28.3867 28.5286C28.6181 28.0824 28.7409 27.5887 28.7454 27.087C28.7498 26.5854 28.6357 26.0897 28.4123 25.6394L26.4409 21.483ZM33.507 14.6148L36.656 8L39.8052 14.6148C40.1576 15.3306 40.3366 16.1181 40.3277 16.9144C40.3188 17.7107 40.1223 18.494 39.7539 19.202C39.4553 19.7588 39.0092 20.2246 38.4634 20.5494C37.9177 20.8742 37.2929 21.0458 36.656 21.0458C36.0192 21.0458 35.3944 20.8742 34.8487 20.5494C34.3029 20.2246 33.8568 19.7588 33.5582 19.202C33.1898 18.494 32.9933 17.7107 32.9844 16.9144C32.9756 16.1181 33.1545 15.3306 33.507 14.6148ZM19.1185 32.3809L17.3007 36.2331C17.0894 36.6418 16.9813 37.0951 16.9857 37.5541C16.9902 38.0132 17.1071 38.4644 17.3263 38.8689C17.4856 39.2035 17.74 39.4847 18.0583 39.6783C18.3766 39.8719 18.7451 39.9693 19.1185 39.9587C19.4907 39.9631 19.8565 39.863 20.1737 39.6702C20.4908 39.4773 20.7463 39.1995 20.9107 38.8689C21.1238 38.4625 21.2372 38.012 21.2417 37.5541C21.2461 37.0961 21.1415 36.6436 20.9363 36.2331L19.1185 32.3809ZM33.3532 36.2585L36.656 29.3396L39.9587 36.2585C40.3234 37.0114 40.5085 37.8372 40.4996 38.6721C40.4907 39.507 40.2881 40.3287 39.9075 41.0738C39.3186 42.113 38.3457 43 36.656 43C34.9662 43 33.9933 42.113 33.4045 41.0738C33.0238 40.3287 32.8212 39.507 32.8123 38.6721C32.8034 37.8372 32.9885 37.0114 33.3532 36.2585Z" fill="url(#paint0_linear_4495_39085)"/>
<defs>
<linearGradient id="paint0_linear_4495_39085" x1="28" y1="-5.25" x2="25.5" y2="43" gradientUnits="userSpaceOnUse">
<stop stop-color="#D7F0FF"/>
<stop offset="1" stop-color="#0072DC"/>
</linearGradient>
</defs>
</svg>
