<svg width="51" height="51" viewBox="0 0 51 51" fill="none" xmlns="http://www.w3.org/2000/svg">
<path fill-rule="evenodd" clip-rule="evenodd" d="M29.1282 33.0738C29.1282 32.4808 28.6474 32 28.0544 32C27.4613 32 26.9806 32.4808 26.9806 33.0738V34.908L25.6837 33.611C25.2643 33.1917 24.5844 33.1917 24.1651 33.611C23.7458 34.0304 23.7458 34.7102 24.1651 35.1296L25.462 36.4265H23.628C23.0349 36.4265 22.5542 36.9073 22.5542 37.5003C22.5542 38.0933 23.0349 38.5741 23.628 38.5741L25.462 38.5741L24.165 39.8711C23.7456 40.2905 23.7456 40.9704 24.165 41.3897C24.5843 41.809 25.2642 41.809 25.6835 41.3897L26.9806 40.0926V41.9269C26.9806 42.52 27.4613 43.0007 28.0544 43.0007C28.6474 43.0007 29.1282 42.52 29.1282 41.9269V40.0926L30.4252 41.3897C30.8446 41.809 31.5244 41.809 31.9438 41.3897C32.3631 40.9704 32.3631 40.2905 31.9438 39.8711L30.6467 38.5741L32.4811 38.5741C33.0742 38.5741 33.5549 38.0933 33.5549 37.5003C33.5549 36.9073 33.0742 36.4265 32.4811 36.4265H30.6467L31.9436 35.1296C32.363 34.7102 32.363 34.0304 31.9436 33.611C31.5243 33.1917 30.8444 33.1917 30.4251 33.611L29.1282 34.908V33.0738Z" fill="url(#paint0_linear_4495_39086)"/>
<path fill-rule="evenodd" clip-rule="evenodd" d="M34.2417 9.0122C34.2417 8.17703 33.5647 7.5 32.7295 7.5C31.8943 7.5 31.2173 8.17703 31.2173 9.0122L31.2173 11.3497L29.5644 9.69684C28.9739 9.10629 28.0164 9.10629 27.4259 9.69684C26.8353 10.2874 26.8353 11.2449 27.4259 11.8354L29.0787 13.4883L26.7412 13.4883C25.906 13.4883 25.229 14.1653 25.229 15.0005C25.229 15.8356 25.906 16.5127 26.7412 16.5127H29.0787L27.4259 18.1656C26.8353 18.7561 26.8353 19.7136 27.4259 20.3041C28.0164 20.8947 28.9739 20.8947 29.5644 20.3041L31.2173 18.6512L31.2173 20.9888C31.2173 21.824 31.8943 22.501 32.7295 22.501C33.5647 22.501 34.2417 21.824 34.2417 20.9888V18.6512L35.8946 20.3041C36.4852 20.8947 37.4426 20.8947 38.0332 20.3041C38.6237 19.7136 38.6237 18.7561 38.0332 18.1656L36.3803 16.5127H38.7178C39.553 16.5127 40.23 15.8356 40.23 15.0005C40.23 14.1653 39.553 13.4883 38.7178 13.4883L36.3803 13.4883L38.0331 11.8354C38.6237 11.2449 38.6237 10.2874 38.0331 9.69684C37.4426 9.10629 36.4851 9.10629 35.8946 9.69684L34.2417 11.3497V9.0122Z" fill="url(#paint1_linear_4495_39086)"/>
<path fill-rule="evenodd" clip-rule="evenodd" d="M18.8094 19.2044C18.8094 18.4815 18.2234 17.8955 17.5005 17.8955C16.7777 17.8955 16.1917 18.4815 16.1917 19.2044V21.2361L14.755 19.7995C14.2439 19.2883 13.4151 19.2883 12.904 19.7995C12.3928 20.3106 12.3928 21.1394 12.904 21.6505L14.3405 23.087L12.3089 23.087C11.586 23.087 11 23.673 11 24.3959C11 25.1188 11.586 25.7048 12.3089 25.7048L14.3405 25.7048L12.9039 27.1414C12.3927 27.6526 12.3927 28.4813 12.9039 28.9924C13.415 29.5036 14.2438 29.5036 14.7549 28.9924L16.1917 27.5557V29.5875C16.1917 30.3103 16.7777 30.8963 17.5005 30.8963C18.2234 30.8963 18.8094 30.3103 18.8094 29.5875V27.5559L20.2459 28.9924C20.7571 29.5036 21.5858 29.5036 22.097 28.9924C22.6081 28.4813 22.6081 27.6526 22.097 27.1414L20.6603 25.7048L22.6919 25.7048C23.4148 25.7048 24.0008 25.1188 24.0008 24.3959C24.0008 23.673 23.4148 23.087 22.6919 23.087L20.6603 23.087L22.0969 21.6505C22.608 21.1394 22.608 20.3106 22.0969 19.7995C21.5857 19.2883 20.757 19.2883 20.2458 19.7995L18.8094 21.2359V19.2044Z" fill="url(#paint2_linear_4495_39086)"/>
<defs>
<linearGradient id="paint0_linear_4495_39086" x1="24.1246" y1="40.7744" x2="34.5725" y2="31.9559" gradientUnits="userSpaceOnUse">
<stop stop-color="#0056D6"/>
<stop offset="1" stop-color="#ADD8FF"/>
</linearGradient>
<linearGradient id="paint1_linear_4495_39086" x1="27.3704" y1="19.4651" x2="41.6176" y2="7.43991" gradientUnits="userSpaceOnUse">
<stop stop-color="#0056D6"/>
<stop offset="1" stop-color="#ADD8FF"/>
</linearGradient>
<linearGradient id="paint2_linear_4495_39086" x1="12.8559" y1="28.2652" x2="25.2035" y2="17.8434" gradientUnits="userSpaceOnUse">
<stop stop-color="#0056D6"/>
<stop offset="1" stop-color="#ADD8FF"/>
</linearGradient>
</defs>
</svg>
