<svg width="32" height="33" viewBox="0 0 32 33" fill="none" xmlns="http://www.w3.org/2000/svg">
<path fill-rule="evenodd" clip-rule="evenodd" d="M19.0977 3.59664C19.0977 1.88641 17.7113 0.5 16.001 0.5C14.2908 0.5 12.9044 1.88641 12.9044 3.59663V9.02523L9.06577 5.1866C7.85645 3.97729 5.89577 3.97729 4.68646 5.1866C3.47715 6.39591 3.47715 8.35659 4.68646 9.5659L8.52497 13.4044L3.09664 13.4044C1.38641 13.4044 1.78814e-07 14.7908 0 16.5011C-1.78814e-07 18.2113 1.38641 19.5977 3.09664 19.5977L8.52522 19.5977L4.68662 23.4363C3.47731 24.6456 3.47731 26.6063 4.68662 27.8156C5.89594 29.0249 7.85662 29.0249 9.06593 27.8156L12.9044 23.9771V29.4056C12.9044 31.1158 14.2908 32.5022 16.001 32.5022C17.7113 32.5022 19.0977 31.1158 19.0977 29.4056V23.9771L22.9361 27.8156C24.1454 29.0249 26.1061 29.0249 27.3154 27.8156C28.5247 26.6063 28.5247 24.6456 27.3154 23.4363L23.4768 19.5977L28.9056 19.5977C30.6158 19.5977 32.0022 18.2113 32.0022 16.5011C32.0022 14.7908 30.6158 13.4044 28.9056 13.4044L23.4771 13.4044L27.3156 9.56591C28.5249 8.35659 28.5249 6.39591 27.3156 5.1866C26.1063 3.97729 24.1456 3.97729 22.9363 5.1866L19.0977 9.02524V3.59664Z" fill="url(#paint0_linear_5245_4738)"/>
<defs>
<linearGradient id="paint0_linear_5245_4738" x1="4.56841" y1="26.0256" x2="34.9626" y2="0.371812" gradientUnits="userSpaceOnUse">
<stop stop-color="#0056D6"/>
<stop offset="1" stop-color="#ADD8FF"/>
</linearGradient>
</defs>
</svg>
