<svg width="51" height="51" viewBox="0 0 51 51" fill="none" xmlns="http://www.w3.org/2000/svg">
<path fill-rule="evenodd" clip-rule="evenodd" d="M32.7283 12.75C32.7283 12.0596 33.288 11.5 33.9783 11.5H36.0933C38.7672 11.5 40.9349 13.6676 40.9349 16.3415V16.7671C40.9349 19.4411 38.7672 21.6087 36.0933 21.6087H23.7066C23.0163 21.6087 22.4566 21.049 22.4566 20.3587C22.4566 19.6683 23.0163 19.1087 23.7066 19.1087H36.0933C37.3865 19.1087 38.4349 18.0603 38.4349 16.7671V16.3415C38.4349 15.0483 37.3865 14 36.0933 14H33.9783C33.288 14 32.7283 13.4404 32.7283 12.75ZM34.4403 37.9673C34.4403 38.6576 34.9999 39.2173 35.6903 39.2173H37.8052C40.4792 39.2173 42.6468 37.0496 42.6468 34.3757V33.9501C42.6468 31.2762 40.4792 29.1086 37.8052 29.1086H18.0001C17.3097 29.1086 16.7501 29.6682 16.7501 30.3586C16.7501 31.0489 17.3097 31.6086 18.0001 31.6086H37.8052C39.0984 31.6086 40.1468 32.6569 40.1468 33.9501V34.3757C40.1468 35.6689 39.0984 36.7173 37.8052 36.7173H35.6903C34.9999 36.7173 34.4403 37.2769 34.4403 37.9673ZM13.4349 31.6086C14.1252 31.6086 14.6849 31.049 14.6849 30.3586C14.6849 29.6683 14.1252 29.1086 13.4349 29.1086H9.25011C8.55975 29.1086 8.00011 29.6683 8.00011 30.3586C8.00011 31.049 8.55975 31.6086 9.25011 31.6086H13.4349ZM42.837 25.3586C42.837 26.049 42.2773 26.6086 41.587 26.6086H35.1196C34.4292 26.6086 33.8696 26.049 33.8696 25.3586C33.8696 24.6683 34.4292 24.1086 35.1196 24.1086H41.587C42.2773 24.1086 42.837 24.6683 42.837 25.3586ZM30.1739 26.6086C30.8643 26.6086 31.4239 26.049 31.4239 25.3586C31.4239 24.6683 30.8643 24.1086 30.1739 24.1086L9.25 24.1086C8.55964 24.1086 8 24.6683 8 25.3586C8 26.049 8.55964 26.6086 9.25 26.6086L30.1739 26.6086Z" fill="url(#paint0_linear_4495_39084)"/>
<defs>
<linearGradient id="paint0_linear_4495_39084" x1="48.25" y1="1.75" x2="25.4185" y2="39.2174" gradientUnits="userSpaceOnUse">
<stop stop-color="#D7F0FF"/>
<stop offset="1" stop-color="#0072DC"/>
</linearGradient>
</defs>
</svg>
