<svg width="28" height="32" viewBox="0 0 28 32" fill="none" xmlns="http://www.w3.org/2000/svg">
<path d="M4.88144 16.2975L14.0815 0.496823C14.2606 0.189214 14.5897 0 14.9457 0H26.6652C27.043 0 27.2843 0.40289 27.106 0.735968L22.4501 9.43367C22.2718 9.76675 22.5132 10.1696 22.891 10.1696H26.0999C26.5697 10.1696 26.7801 10.7589 26.4166 11.0565L1.14894 31.7409C0.71766 32.0939 0.11939 31.5831 0.400453 31.1018L8.16752 17.8012C8.36217 17.4679 8.12175 17.0491 7.73575 17.0491H5.31353C4.92781 17.0491 4.68735 16.6308 4.88144 16.2975Z" fill="url(#paint0_linear_5245_7215)"/>
<defs>
<linearGradient id="paint0_linear_5245_7215" x1="13.25" y1="0" x2="13.25" y2="33.5" gradientUnits="userSpaceOnUse">
<stop stop-color="#F8FD00"/>
<stop offset="1" stop-color="#FD9800"/>
</linearGradient>
</defs>
</svg>
