<svg width="59" height="57" viewBox="0 0 59 57" fill="none" xmlns="http://www.w3.org/2000/svg">
<g filter="url(#filter0_ddi_4495_39403)">
<circle cx="24" cy="24.5" r="16" fill="url(#paint0_linear_4495_39403)"/>
</g>
<path fill-rule="evenodd" clip-rule="evenodd" d="M44.3168 25.3064C44.3168 24.616 44.8765 24.0564 45.5668 24.0564H47.433C50.1847 24.0564 52.4154 26.2871 52.4154 29.0388C52.4154 31.7905 50.1847 34.0212 47.433 34.0212H35.4894C34.799 34.0212 34.2394 33.4615 34.2394 32.7712C34.2394 32.0808 34.799 31.5212 35.4894 31.5212H47.433C48.804 31.5212 49.9154 30.4098 49.9154 29.0388C49.9154 27.6678 48.804 26.5564 47.433 26.5564H45.5668C44.8765 26.5564 44.3168 25.9968 44.3168 25.3064ZM45.9964 49.1936C45.9964 49.884 46.556 50.4436 47.2464 50.4436H49.1126C51.8643 50.4436 54.0949 48.2129 54.0949 45.4612C54.0949 42.7095 51.8643 40.4788 49.1126 40.4788H29.8907C29.2004 40.4788 28.6407 41.0385 28.6407 41.7288C28.6407 42.4192 29.2004 42.9788 29.8907 42.9788H49.1126C50.4835 42.9788 51.5949 44.0902 51.5949 45.4612C51.5949 46.8322 50.4835 47.9436 49.1126 47.9436H47.2464C46.556 47.9436 45.9964 48.5032 45.9964 49.1936ZM25.412 42.9788C26.1023 42.9788 26.662 42.4191 26.662 41.7288C26.662 41.0384 26.1023 40.4788 25.412 40.4788H21.3063C20.616 40.4788 20.0563 41.0384 20.0563 41.7288C20.0563 42.4191 20.616 42.9788 21.3063 42.9788H25.412ZM54.2816 37.25C54.2816 37.9404 53.7219 38.5 53.0316 38.5H46.6865C45.9962 38.5 45.4365 37.9404 45.4365 37.25C45.4365 36.5596 45.9962 36 46.6865 36H53.0316C53.7219 36 54.2816 36.5596 54.2816 37.25ZM41.8343 38.5C42.5247 38.5 43.0843 37.9404 43.0843 37.25C43.0843 36.5596 42.5247 36 41.8343 36L21.3062 36C20.6158 36 20.0562 36.5596 20.0562 37.25C20.0562 37.9404 20.6158 38.5 21.3062 38.5L41.8343 38.5Z" fill="url(#paint1_linear_4495_39403)"/>
<defs>
<filter id="filter0_ddi_4495_39403" x="0" y="0.5" width="48" height="48" filterUnits="userSpaceOnUse" color-interpolation-filters="sRGB">
<feFlood flood-opacity="0" result="BackgroundImageFix"/>
<feColorMatrix in="SourceAlpha" type="matrix" values="0 0 0 0 0 0 0 0 0 0 0 0 0 0 0 0 0 0 127 0" result="hardAlpha"/>
<feOffset/>
<feGaussianBlur stdDeviation="4"/>
<feComposite in2="hardAlpha" operator="out"/>
<feColorMatrix type="matrix" values="0 0 0 0 0.992157 0 0 0 0 0.773882 0 0 0 0 0 0 0 0 1 0"/>
<feBlend mode="normal" in2="BackgroundImageFix" result="effect1_dropShadow_4495_39403"/>
<feColorMatrix in="SourceAlpha" type="matrix" values="0 0 0 0 0 0 0 0 0 0 0 0 0 0 0 0 0 0 127 0" result="hardAlpha"/>
<feOffset/>
<feGaussianBlur stdDeviation="2.75"/>
<feComposite in2="hardAlpha" operator="out"/>
<feColorMatrix type="matrix" values="0 0 0 0 0.992157 0 0 0 0 0.772549 0 0 0 0 0 0 0 0 0.45 0"/>
<feBlend mode="normal" in2="effect1_dropShadow_4495_39403" result="effect2_dropShadow_4495_39403"/>
<feBlend mode="normal" in="SourceGraphic" in2="effect2_dropShadow_4495_39403" result="shape"/>
<feColorMatrix in="SourceAlpha" type="matrix" values="0 0 0 0 0 0 0 0 0 0 0 0 0 0 0 0 0 0 127 0" result="hardAlpha"/>
<feOffset dx="-0.5" dy="1.5"/>
<feGaussianBlur stdDeviation="1.25"/>
<feComposite in2="hardAlpha" operator="arithmetic" k2="-1" k3="1"/>
<feColorMatrix type="matrix" values="0 0 0 0 1 0 0 0 0 0.9 0 0 0 0 0 0 0 0 0.35 0"/>
<feBlend mode="normal" in2="shape" result="effect3_innerShadow_4495_39403"/>
</filter>
<linearGradient id="paint0_linear_4495_39403" x1="24" y1="8.5" x2="24" y2="40.5" gradientUnits="userSpaceOnUse">
<stop stop-color="#FDC500"/>
<stop offset="1" stop-color="#FD8900"/>
</linearGradient>
<linearGradient id="paint1_linear_4495_39403" x1="34.4999" y1="16.5001" x2="48.7499" y2="50.5001" gradientUnits="userSpaceOnUse">
<stop stop-color="#D7F0FF"/>
<stop offset="1" stop-color="#0072DC"/>
</linearGradient>
</defs>
</svg>
