<svg width="56" height="55" viewBox="0 0 56 55" fill="none" xmlns="http://www.w3.org/2000/svg">
<path d="M31.9678 31.7444C30.425 31.8334 28.8802 31.6076 27.4282 31.0809C25.9761 30.5542 24.6474 29.7377 23.5235 28.6815C22.3997 27.6253 21.5043 26.3516 20.8923 24.9385C20.2803 23.5254 19.9646 22.0028 19.9646 20.4639C19.9646 18.925 20.2803 17.4024 20.8923 15.9893C21.5043 14.5762 22.3997 13.3025 23.5235 12.2463C24.6474 11.1901 25.9761 10.3736 27.4282 9.8469C28.8802 9.32021 30.425 9.09443 31.9678 9.18339C32.9421 9.17613 33.9128 9.3033 34.852 9.56129C32.0385 7.54465 28.6532 6.47259 25.1867 6.50053C21.7202 6.52847 18.3527 7.65495 15.5723 9.71669C12.7919 11.7784 10.7431 14.6683 9.72278 17.9674C8.70251 21.2665 8.76379 24.8034 9.89775 28.0655C11.0317 31.3276 13.1795 34.1454 16.0296 36.1104C18.8798 38.0754 22.2843 39.0855 25.7497 38.9943C29.2151 38.9032 32.5613 37.7155 35.3033 35.6034C38.0453 33.4913 40.0406 30.5645 41 27.2473C39.9514 28.6469 38.5884 29.7826 37.02 30.5635C35.4516 31.3444 33.7213 31.7488 31.9678 31.7444Z" fill="url(#paint0_linear_4495_39404)"/>
<path d="M38.0003 21.5C38.0003 20.1739 37.5546 18.9022 36.7611 17.9645C35.9677 17.0268 34.8916 16.5 33.7695 16.5C34.8916 16.5 35.9677 15.9732 36.7611 15.0355C37.5546 14.0979 38.0003 12.8261 38.0003 11.5C38.0003 12.1566 38.1097 12.8068 38.3224 13.4134C38.535 14.02 38.8466 14.5712 39.2395 15.0355C39.6323 15.4998 40.0987 15.8681 40.612 16.1194C41.1253 16.3707 41.6755 16.5 42.2311 16.5C41.6755 16.5 41.1253 16.6293 40.612 16.8806C40.0987 17.1319 39.6323 17.5002 39.2395 17.9645C38.8466 18.4288 38.535 18.98 38.3224 19.5866C38.1097 20.1932 38.0003 20.8434 38.0003 21.5Z" fill="url(#paint1_linear_4495_39404)"/>
<path d="M4.73077 39C4.73077 37.6739 4.28503 36.4022 3.4916 35.4645C2.69818 34.5268 1.62207 34 0.5 34C1.62207 34 2.69818 33.4732 3.4916 32.5355C4.28503 31.5979 4.73077 30.3261 4.73077 29C4.73077 29.6566 4.8402 30.3068 5.05282 30.9134C5.26544 31.52 5.57707 32.0712 5.96993 32.5355C6.3628 32.9998 6.8292 33.3681 7.3425 33.6194C7.8558 33.8707 8.40595 34 8.96154 34C8.40595 34 7.8558 34.1293 7.3425 34.3806C6.8292 34.6319 6.3628 35.0002 5.96993 35.4645C5.57707 35.9288 5.26544 36.48 5.05282 37.0866C4.8402 37.6932 4.73077 38.3434 4.73077 39Z" fill="url(#paint2_linear_4495_39404)"/>
<path fill-rule="evenodd" clip-rule="evenodd" d="M45.3168 23.3064C45.3168 22.616 45.8765 22.0564 46.5668 22.0564H48.433C51.1847 22.0564 53.4154 24.2871 53.4154 27.0388C53.4154 29.7905 51.1847 32.0212 48.433 32.0212H36.4894C35.799 32.0212 35.2394 31.4615 35.2394 30.7712C35.2394 30.0808 35.799 29.5212 36.4894 29.5212H48.433C49.804 29.5212 50.9154 28.4098 50.9154 27.0388C50.9154 25.6678 49.804 24.5564 48.433 24.5564H46.5668C45.8765 24.5564 45.3168 23.9968 45.3168 23.3064ZM46.9964 47.1936C46.9964 47.884 47.556 48.4436 48.2464 48.4436H50.1126C52.8643 48.4436 55.0949 46.2129 55.0949 43.4612C55.0949 40.7095 52.8643 38.4788 50.1126 38.4788H30.8907C30.2004 38.4788 29.6407 39.0385 29.6407 39.7288C29.6407 40.4192 30.2004 40.9788 30.8907 40.9788H50.1126C51.4835 40.9788 52.5949 42.0902 52.5949 43.4612C52.5949 44.8322 51.4835 45.9436 50.1126 45.9436H48.2464C47.556 45.9436 46.9964 46.5032 46.9964 47.1936ZM26.412 40.9788C27.1023 40.9788 27.662 40.4191 27.662 39.7288C27.662 39.0384 27.1023 38.4788 26.412 38.4788H22.3063C21.616 38.4788 21.0563 39.0384 21.0563 39.7288C21.0563 40.4191 21.616 40.9788 22.3063 40.9788H26.412ZM55.2816 35.25C55.2816 35.9404 54.7219 36.5 54.0316 36.5H47.6865C46.9962 36.5 46.4365 35.9404 46.4365 35.25C46.4365 34.5596 46.9962 34 47.6865 34H54.0316C54.7219 34 55.2816 34.5596 55.2816 35.25ZM42.8343 36.5C43.5247 36.5 44.0843 35.9404 44.0843 35.25C44.0843 34.5596 43.5247 34 42.8343 34L22.3062 34C21.6158 34 21.0562 34.5596 21.0562 35.25C21.0562 35.9404 21.6158 36.5 22.3062 36.5L42.8343 36.5Z" fill="url(#paint3_linear_4495_39404)"/>
<defs>
<linearGradient id="paint0_linear_4495_39404" x1="25" y1="6.5" x2="25" y2="39" gradientUnits="userSpaceOnUse">
<stop stop-color="#FDC500"/>
<stop offset="1" stop-color="#FD8900"/>
</linearGradient>
<linearGradient id="paint1_linear_4495_39404" x1="38.0003" y1="11.5" x2="38.0003" y2="21.5" gradientUnits="userSpaceOnUse">
<stop stop-color="#FDC500"/>
<stop offset="1" stop-color="#FD8900"/>
</linearGradient>
<linearGradient id="paint2_linear_4495_39404" x1="4.73077" y1="29" x2="4.73077" y2="39" gradientUnits="userSpaceOnUse">
<stop stop-color="#FDC500"/>
<stop offset="1" stop-color="#FD8900"/>
</linearGradient>
<linearGradient id="paint3_linear_4495_39404" x1="35.9999" y1="18.7501" x2="52.7499" y2="50.7501" gradientUnits="userSpaceOnUse">
<stop stop-color="#D7F0FF"/>
<stop offset="0.856457" stop-color="#0072DC"/>
</linearGradient>
</defs>
</svg>
