<svg width="20" height="20" viewBox="0 0 20 20" fill="none" xmlns="http://www.w3.org/2000/svg">
<path d="M1.0249 18.5586L12.6916 14.3919L5.19157 6.89189L1.0249 18.5586ZM9.6499 13.7086L3.7749 15.8086L5.8749 9.93356L9.6499 13.7086Z" fill="#FA541C"/>
<path d="M11.4666 10.6669L16.1249 6.00856C16.5332 5.60023 17.1916 5.60023 17.5999 6.00856L18.0916 6.50023L18.9749 5.61689L18.4832 5.12523C17.5916 4.23356 16.1332 4.23356 15.2416 5.12523L10.5832 9.78356L11.4666 10.6669Z" fill="#FA541C"/>
<path d="M7.74157 5.95856L7.2499 6.45023L8.13324 7.33356L8.6249 6.84189C9.51657 5.95023 9.51657 4.49189 8.6249 3.60023L8.13324 3.10856L7.2499 4.00023L7.74157 4.49189C8.14157 4.89189 8.14157 5.55856 7.74157 5.95856Z" fill="#FA541C"/>
<path d="M13.5749 10.1252L12.2499 11.4502L13.1332 12.3336L14.4582 11.0086C14.8666 10.6002 15.5249 10.6002 15.9332 11.0086L17.2749 12.3502L18.1582 11.4669L16.8166 10.1252C15.9166 9.23356 14.4666 9.23356 13.5749 10.1252Z" fill="#FA541C"/>
<path d="M11.9082 5.12523L8.91657 8.1169L9.7999 9.00023L12.7916 6.00856C13.6832 5.11689 13.6832 3.65856 12.7916 2.76689L11.4666 1.44189L10.5832 2.32523L11.9082 3.65023C12.3082 4.05856 12.3082 4.72523 11.9082 5.12523Z" fill="#FA541C"/>
</svg>
