<svg width="20" height="20" viewBox="0 0 20 20" fill="none" xmlns="http://www.w3.org/2000/svg">
<path d="M17.0167 3.81671C16.5987 3.39719 16.1019 3.06433 15.5549 2.8372C15.0079 2.61008 14.4215 2.49316 13.8292 2.49316C13.237 2.49316 12.6505 2.61008 12.1036 2.8372C11.5566 3.06433 11.0598 3.39719 10.6417 3.81671L10.0001 4.46671L9.35841 3.81671C8.94034 3.39719 8.44357 3.06433 7.89659 2.8372C7.34961 2.61008 6.76317 2.49316 6.17091 2.49316C5.57864 2.49316 4.9922 2.61008 4.44522 2.8372C3.89824 3.06433 3.40147 3.39719 2.98341 3.81671C1.21674 5.58338 1.10841 8.56671 3.33341 10.8334L10.0001 17.5L16.6667 10.8334C18.8917 8.56671 18.7834 5.58338 17.0167 3.81671Z" stroke="#52C41A" stroke-width="1.5" stroke-linecap="round" stroke-linejoin="round"/>
<path d="M10.0001 4.4668L7.39174 7.08346C7.06199 7.41592 6.87695 7.86521 6.87695 8.33346C6.87695 8.80172 7.06199 9.25101 7.39174 9.58346V9.58346C7.7242 9.91322 8.17349 10.0983 8.64174 10.0983C9.11 10.0983 9.55929 9.91322 9.89174 9.58346L11.7751 7.7418C12.2431 7.2787 12.875 7.01895 13.5334 7.01895C14.1918 7.01895 14.8237 7.2787 15.2917 7.7418L17.2917 9.7418" stroke="#52C41A" stroke-width="1.5" stroke-linecap="round" stroke-linejoin="round"/>
<path d="M15.0002 12.5002L13.3335 10.8335" stroke="#52C41A" stroke-width="1.5" stroke-linecap="round" stroke-linejoin="round"/>
<path d="M12.5002 15.0002L10.8335 13.3335" stroke="#52C41A" stroke-width="1.5" stroke-linecap="round" stroke-linejoin="round"/>
</svg>
