<svg width="20" height="20" viewBox="0 0 20 20" fill="none" xmlns="http://www.w3.org/2000/svg">
<g clip-path="url(#clip0_4790_18433)">
<path d="M10.8317 2.5C11.0528 2.5 11.2647 2.5878 11.421 2.74408C11.5773 2.90036 11.6651 3.11232 11.6651 3.33333V7.1125L14.9384 5.22333C15.1298 5.11283 15.3573 5.08289 15.5707 5.14008C15.7842 5.19728 15.9662 5.33694 16.0767 5.52833L16.9101 6.97167C17.0206 7.16307 17.0505 7.39052 16.9933 7.604C16.9361 7.81748 16.7965 7.99949 16.6051 8.11L13.3326 10L16.6051 11.8908C16.7965 12.0013 16.9361 12.1834 16.9933 12.3968C17.0505 12.6103 17.0206 12.8378 16.9101 13.0292L16.0767 14.4725C15.9662 14.6639 15.7842 14.8036 15.5707 14.8607C15.3573 14.9179 15.1298 14.888 14.9384 14.7775L11.6651 12.8867V16.6667C11.6651 16.8877 11.5773 17.0996 11.421 17.2559C11.2647 17.4122 11.0528 17.5 10.8317 17.5H9.16507C8.94406 17.5 8.7321 17.4122 8.57582 17.2559C8.41954 17.0996 8.33174 16.8877 8.33174 16.6667V12.8867L5.05841 14.7767C4.86701 14.8872 4.63955 14.9171 4.42608 14.8599C4.2126 14.8027 4.03058 14.6631 3.92007 14.4717L3.08674 13.0283C2.97624 12.8369 2.94629 12.6095 3.00349 12.396C3.06069 12.1825 3.20035 12.0005 3.39174 11.89L6.66424 10L3.39174 8.11C3.20035 7.99949 3.06069 7.81748 3.00349 7.604C2.94629 7.39052 2.97624 7.16307 3.08674 6.97167L3.92007 5.52833C4.03058 5.33694 4.2126 5.19728 4.42608 5.14008C4.63955 5.08289 4.86701 5.11283 5.05841 5.22333L8.33174 7.1125V3.33333C8.33174 3.11232 8.41954 2.90036 8.57582 2.74408C8.7321 2.5878 8.94406 2.5 9.16507 2.5H10.8317Z" stroke="#722ED1" stroke-width="1.5" stroke-linecap="round" stroke-linejoin="round"/>
</g>
<defs>
<clipPath id="clip0_4790_18433">
<rect width="20" height="20" fill="white"/>
</clipPath>
</defs>
</svg>
