<svg width="20" height="20" viewBox="0 0 20 20" fill="none" xmlns="http://www.w3.org/2000/svg">
<g clip-path="url(#clip0_4790_18453)">
<path d="M2.5 14.6667H17.5V8C17.5 7.33696 17.2366 6.70107 16.7678 6.23223C16.2989 5.76339 15.663 5.5 15 5.5H5C4.33696 5.5 3.70107 5.76339 3.23223 6.23223C2.76339 6.70107 2.5 7.33696 2.5 8V14.6667Z" stroke="#1677FF" stroke-width="1.5" stroke-linecap="round" stroke-linejoin="round"/>
<path d="M2.5 10.3364C2.76 10.4489 3.045 10.5064 3.33333 10.5006C3.65791 10.5074 3.97927 10.4351 4.26965 10.2899C4.56002 10.1447 4.81069 9.93101 5 9.66727C5.18931 9.40352 5.43998 9.18983 5.73035 9.04464C6.02073 8.89945 6.34209 8.82714 6.66667 8.83393C6.99125 8.82714 7.3126 8.89945 7.60298 9.04464C7.89336 9.18983 8.14402 9.40352 8.33333 9.66727C8.52264 9.93101 8.77331 10.1447 9.06369 10.2899C9.35406 10.4351 9.67542 10.5074 10 10.5006C10.3246 10.5074 10.6459 10.4351 10.9363 10.2899C11.2267 10.1447 11.4774 9.93101 11.6667 9.66727C11.856 9.40352 12.1066 9.18983 12.397 9.04464C12.6874 8.89945 13.0088 8.82714 13.3333 8.83393C13.6579 8.82714 13.9793 8.89945 14.2696 9.04464C14.56 9.18983 14.8107 9.40352 15 9.66727C15.1893 9.93101 15.44 10.1447 15.7304 10.2899C16.0207 10.4351 16.3421 10.5074 16.6667 10.5006C16.9583 10.5064 17.2433 10.4489 17.5 10.3364" stroke="#1677FF" stroke-width="1.5" stroke-linecap="round" stroke-linejoin="round"/>
<path d="M9.99966 1.3335L11.2205 2.6985C11.4383 2.93269 11.5842 3.22463 11.6407 3.53945C11.6971 3.85428 11.6618 4.17871 11.5389 4.47401C11.416 4.76931 11.2107 5.02301 10.9476 5.20484C10.6844 5.38666 10.3745 5.48892 10.0549 5.49942C9.73518 5.50991 9.41923 5.4282 9.14473 5.26403C8.87022 5.09987 8.64875 4.86018 8.50675 4.57357C8.36475 4.28697 8.30822 3.96556 8.3439 3.64771C8.37959 3.32985 8.50598 3.02898 8.70799 2.781L9.99966 1.3335Z" stroke="#1677FF" stroke-width="1.5" stroke-linecap="round" stroke-linejoin="round"/>
</g>
<defs>
<clipPath id="clip0_4790_18453">
<rect width="20" height="20" fill="white"/>
</clipPath>
</defs>
</svg>
